<?xml version="1.0" encoding="utf-8"?>
<!-- Generator: Adobe Illustrator 25.3.1, SVG Export Plug-In . SVG Version: 6.00 Build 0)  -->
<svg version="1.1" id="Layer_1" xmlns="http://www.w3.org/2000/svg" xmlns:xlink="http://www.w3.org/1999/xlink" x="0px" y="0px"
	 viewBox="0 0 544.2 157" style="enable-background:new 0 0 544.2 157;" xml:space="preserve">
<style type="text/css">
	.st0{fill:#FFFFFF;}
	.st1{fill:#E41513;}
</style>
<image style="display:none;overflow:visible;" width="6420" height="2387" xlink:href="66796F6F.png"  transform="matrix(8.803639e-02 0 0 8.803639e-02 774.2603 38)">
</image>
<g>
	<path class="st0" d="M68.7,6.9v104.2c0,20.3-16.5,36.8-36.8,36.8h-4.3c-8,0-15.4-2.6-21.5-6.9l10.4-17c3.2,2.6,7.3,4.2,11.8,4.2
		c5.1,0,9.8-2.1,13.2-5.4c3.4-3.4,5.5-8,5.5-13.1L47.2,6.9H68.7z"/>
	<rect x="107.2" y="6.9" class="st0" width="21" height="138.9"/>
	<path class="st0" d="M213.1,86.6c32.6-7.3,31.3-40.3,31.3-40.3c-0.5-23.8-17.2-33.4-32.3-37.1c-0.1,0-0.3-0.1-0.4-0.1
		c-16.3-4.7-44.9-2.2-44.9-2.2v138.9h21V89.4h3.2l39.5,56.4h25.7L213.1,86.6z M187.8,70.8V27.4c15.4-0.6,37.3,0.3,35.7,23.8
		C221.9,74.6,187.8,70.8,187.8,70.8z"/>
	<circle class="st0" cx="344.5" cy="76.9" r="72.5"/>
	<g>
		<path class="st1" d="M344.5,127.4c-28.1,0-51-22.9-51-51s22.9-51,51-51s51,22.9,51,51S372.6,127.4,344.5,127.4z M344.5,45.4
			c-17.1,0-31,13.9-31,31c0,17.1,13.9,31,31,31c17.1,0,31-13.9,31-31C375.5,59.3,361.6,45.4,344.5,45.4z"/>
	</g>
	<polygon class="st0" points="423.7,6.9 448.5,6.9 479.7,62.4 511.5,6.9 535.6,6.9 490.3,86.2 490.3,146 469.7,146 469.7,86.2 	"/>
</g>
</svg>
