<?xml version="1.0" encoding="utf-8"?>

<svg viewBox="0 0 761.8 155.2" tyle="fill: #fff" > 
<g>
<path d="M287,7.1v91.2c0,11.2-0.4,22.4-5.3,32.1c-4.4,8.9-13.9,20.3-33.1,20.3c-12.4,0-20.7-4.4-24.9-7.2l10.5-18.1 c2.7,2.3,7.2,5.1,14.8,5.1c3.6,0,10.5-0.6,14.1-9.5c1.3-3.2,2.3-8.2,2.3-22.6V7.1H287z"></path>
<path d="M344.1,7.1v140.7h-21.5V7.1H344.1z"></path>
<path d="M404.9,7.1c17.1,0,28.1,2.1,37.1,8.2c15.4,10.3,16.7,27,16.7,33.1c0,20.3-12.4,35-31.2,39.2l43.9,60.1h-26 l-40.3-57.6h-3.8v57.7h-21.5V7.1H404.9z M401.3,71.7h6.8c5.9,0,30-0.6,30-23c0-19.8-18.8-21.7-29.3-21.7h-7.5V71.7z"></path>
<path d="M634,77.6c0,41.4-31,73-73.2,73s-73.2-31.6-73.2-73s31-73,73.2-73C603,4.6,634,36.2,634,77.6z M612.5,77.6 c0-31.2-21.5-53.2-51.7-53.2s-51.7,21.9-51.7,53.2c0,31.2,21.5,53.2,51.7,53.2S612.5,108.8,612.5,77.6z"></path>
<path d="M688.1,87.1l-46.2-80h24.4l32.5,56.3l32.5-56.3h24.5l-46.2,80v60.7h-21.5V87.1z"></path></g>
</svg>